<svg width="260" height="122" viewBox="0 0 260 122" version="1.1" xmlns="http://www.w3.org/2000/svg" xmlns:xlink="http://www.w3.org/1999/xlink"><title>Des_Logo_Principal</title><desc>Created with Sketch.</desc><g id="Page-1" stroke="none" stroke-width="1" fill="none" fill-rule="evenodd"><g id="Des_Logo_Principal"><g transform="translate(30.000000, 30.000000)" id="Camada_1"><g id="Group"><path d="M65.7,31 C65.7,34.1 67.7,35.8 70,35.8 C72.3,35.8 73.5,34.2 73.9,32.9 L77.9,34.2 C77.2,37 74.5,39.9 70,39.9 C65,39.9 61.1,36.2 61.1,31 C61.1,25.8 64.9,22 69.8,22 C74.4,22 77,24.8 77.7,27.7 L73.6,29.1 C73.2,27.7 72.1,26.3 69.9,26.3 C67.7,26.2 65.7,27.9 65.7,31 Z" id="Shape" fill="#333"/><path d="M97.5,30.9 C97.5,36.1 93.7,39.9 88.7,39.9 C83.7,39.9 79.8,36.2 79.8,31 C79.8,25.8 83.6,22 88.6,22 C93.7,22 97.5,25.7 97.5,30.9 Z M93,30.9 C93,27.7 90.9,26.1 88.7,26.1 C86.5,26.1 84.4,27.7 84.4,30.9 C84.4,34.1 86.5,35.7 88.7,35.7 C90.9,35.7 93,34.1 93,30.9 Z" id="Shape" fill="#333"/><path d="M100.5,39.3 L100.5,22.4 L104.9,22.4 L104.9,24.5 C105.8,22.9 108,22 109.8,22 C112.1,22 114,23 114.8,24.8 C116.1,22.7 117.9,22 120.1,22 C123.2,22 126.2,23.9 126.2,28.4 L126.2,39.3 L121.8,39.3 L121.8,29.3 C121.8,27.5 120.9,26.1 118.8,26.1 C116.8,26.1 115.7,27.6 115.7,29.4 L115.7,39.3 L111.2,39.3 L111.2,29.3 C111.2,27.5 110.3,26.1 108.2,26.1 C106.2,26.1 105,27.6 105.1,29.4 L105.1,39.3 L100.5,39.3 Z" id="Shape" fill="#333"/><path d="M130.2,45.8 L130.1,22.4 L134.5,22.4 L134.5,24.5 C135.3,23.2 137.1,22.1 139.7,22.1 C144.6,22.1 147.5,25.9 147.5,30.9 C147.5,36 144.3,39.8 139.6,39.8 C137.3,39.8 135.6,38.9 134.7,37.8 L134.7,46 L130.2,45.8 Z M138.8,26.1 C136.5,26.1 134.6,27.9 134.6,30.8 C134.6,33.8 136.5,35.6 138.8,35.6 C141.1,35.6 143,33.8 143,30.8 C143,27.8 141.2,26 138.8,26.1 Z" id="Shape" fill="#333"/><polygon id="Shape" fill="#333" points="150.5 39.2 150.4 14.4 155 14.4 155.1 39.2"/><path d="M161.4,13.9 C163,13.9 164.2,15.2 164.2,16.7 C164.2,18.2 163,19.5 161.4,19.5 C159.9,19.5 158.6,18.2 158.6,16.7 C158.6,15.2 159.9,13.9 161.4,13.9 Z M159.2,39.2 L159.2,22.3 L163.8,22.3 L163.8,39.2 L159.2,39.2 Z" id="Shape" fill="#333"/><path d="M48.7,1.1 L6.6,9.1 C3,9.8 0.1,13.3 0.1,17.6 L0.2,44.2 C0.2,48.6 3.2,52 6.8,52.7 L49,60.9 C54.3,61.9 58.7,57.9 58.7,52.2 L58.6,10.1 C58.4,3.8 54.1,0.1 48.7,1.1 Z" id="Shape" fill="#00DAA6"/><g id="Shape" fill="#333"><path d="M5.2,9.7 C5.2,12.8 7.2,14.5 9.5,14.5 C11.8,14.5 13,12.9 13.4,11.6 L17.4,12.9 C16.7,15.7 14,18.6 9.5,18.6 C4.5,18.6 0.6,14.8 0.6,9.7 C0.6,4.5 4.4,0.7 9.3,0.7 C13.9,0.7 16.5,3.5 17.3,6.4 L13.2,7.8 C12.8,6.4 11.7,5 9.4,5 C7.2,4.9 5.2,6.6 5.2,9.7 Z" transform="translate(166.000000, 21.000000)"/><path d="M24.8,8.4 L29,7.8 C30,7.7 30.3,7.2 30.3,6.6 C30.3,5.4 29.4,4.4 27.4,4.4 C25.4,4.4 24.3,5.7 24.2,7.2 L20.1,6.4 C20.4,3.8 22.8,0.8 27.3,0.8 C32.7,0.8 34.7,3.8 34.7,7.2 L34.7,15.5 C34.7,16.4 34.8,17.6 34.9,18.2 L30.7,18.2 C30.6,17.8 30.5,16.8 30.5,16.2 C29.6,17.5 28,18.7 25.5,18.7 C21.9,18.7 19.7,16.3 19.7,13.6 C19.8,10.5 22,8.8 24.8,8.4 Z M30.2,11.2 L30.2,10.4 L26.4,11 C25.2,11.2 24.3,11.8 24.3,13.1 C24.3,14.1 25,15.1 26.5,15.1 C28.5,15.2 30.2,14.2 30.2,11.2 Z" transform="translate(166.000000, 21.000000)"/></g><g id="Shape" fill="#333"><path d="M36.7,20.6 C35.9,23.5 33.2,26 29,26 C24.4,26 20.3,22.7 20.3,17 C20.3,11.6 24.3,8.1 28.6,8.1 C33.8,8.1 36.9,11.4 37,16.8 C37,17.5 36.9,18.1 36.9,18.2 L24.8,18.2 C24.9,20.4 26.8,22 29.1,22 C31.2,22 32.4,20.9 32.9,19.4 L36.7,20.6 Z M32.5,15.1 C32.4,13.4 31.3,11.8 28.7,11.8 C26.3,11.8 25,13.6 24.9,15.1 L32.5,15.1 Z" transform="translate(3.000000, 14.000000)"/><path d="M42.7,19.9 C42.8,21.2 43.8,22.5 45.8,22.5 C47.3,22.5 48,21.7 48,20.8 C48,20 47.5,19.4 46.2,19.2 L44,18.7 C40.7,18 39.3,16 39.3,13.7 C39.3,10.7 42,8.2 45.6,8.2 C50.4,8.2 52,11.2 52.2,13.1 L48.4,14 C48.3,13 47.5,11.7 45.6,11.7 C44.4,11.7 43.4,12.4 43.4,13.4 C43.4,14.2 44,14.7 44.9,14.9 L47.3,15.4 C50.6,16.1 52.3,18.1 52.3,20.6 C52.3,23.3 50.2,26.2 45.8,26.2 C40.7,26.2 39,22.9 38.8,21 L42.7,19.9 Z" transform="translate(3.000000, 14.000000)"/><path d="M17.6,0.7 L13.1,0.7 L13.1,10.3 C12.6,9.4 11.2,8.2 8.3,8.2 C3.5,8.2 0.2,12.1 0.2,17 C0.2,22.1 3.7,25.9 8.5,25.9 C10.8,25.9 12.5,24.9 13.2,23.5 C13.2,24.3 13.3,25.1 13.4,25.5 L17.8,25.5 C17.7,24.8 17.7,23.6 17.7,22.4 L17.6,0.7 Z M9.1,21.9 C6.7,21.9 4.9,20.1 4.9,17.1 C4.9,14.1 6.7,12.4 9.1,12.4 C11.4,12.4 13.3,14.1 13.3,17.1 C13.2,20.1 11.4,21.9 9.1,21.9 Z" transform="translate(3.000000, 14.000000)"/></g></g></g></g></g></svg>